<mxfile host="app.diagrams.net" modified="2023-07-15T16:18:33.476Z" agent="Mozilla/5.0 (Windows NT 10.0; Win64; x64) AppleWebKit/537.36 (KHTML, like Gecko) Chrome/114.0.0.0 Safari/537.36" etag="ixwiMTfbKJEIY5TN2haK" version="21.5.2" type="github">
  <diagram name="Diagrama Arquitetural" id="aAMzj9zbihKL8DvWXRm6">
    <mxGraphModel dx="880" dy="454" grid="1" gridSize="10" guides="1" tooltips="1" connect="1" arrows="1" fold="1" page="1" pageScale="1" pageWidth="827" pageHeight="1169" math="0" shadow="0">
      <root>
        <mxCell id="0" />
        <mxCell id="1" parent="0" />
        <mxCell id="7IHDZGPkIs5PTHG2BPF3-2" value="" style="rounded=1;whiteSpace=wrap;html=1;dashed=1;" vertex="1" parent="1">
          <mxGeometry x="10" y="70" width="780" height="320" as="geometry" />
        </mxCell>
        <mxCell id="7IHDZGPkIs5PTHG2BPF3-1" value="Marca Consulta Web&lt;br&gt;ASP NET (.NET 6.0)" style="rounded=1;whiteSpace=wrap;html=1;" vertex="1" parent="1">
          <mxGeometry x="60" y="120" width="120" height="60" as="geometry" />
        </mxCell>
        <mxCell id="7IHDZGPkIs5PTHG2BPF3-3" value="&lt;b style=&quot;font-size: 16px;&quot;&gt;&lt;font style=&quot;font-size: 16px;&quot;&gt;Marca Consulta WEB - Diagrama Arquitetural&lt;/font&gt;&lt;/b&gt;" style="text;html=1;align=center;verticalAlign=middle;resizable=0;points=[];autosize=1;strokeColor=#d6b656;fillColor=#fff2cc;fontSize=16;" vertex="1" parent="1">
          <mxGeometry x="229" y="10" width="370" height="30" as="geometry" />
        </mxCell>
        <mxCell id="7IHDZGPkIs5PTHG2BPF3-5" value="SQL&lt;br style=&quot;font-size: 10px;&quot;&gt;marca consulta" style="shape=cylinder3;whiteSpace=wrap;html=1;boundedLbl=1;backgroundOutline=1;size=15;fontSize=10;" vertex="1" parent="1">
          <mxGeometry x="599" y="270" width="60" height="80" as="geometry" />
        </mxCell>
        <mxCell id="7IHDZGPkIs5PTHG2BPF3-6" value="" style="rounded=0;whiteSpace=wrap;html=1;" vertex="1" parent="1">
          <mxGeometry x="180" y="250" width="120" height="60" as="geometry" />
        </mxCell>
        <mxCell id="7IHDZGPkIs5PTHG2BPF3-7" value="" style="rounded=0;whiteSpace=wrap;html=1;" vertex="1" parent="1">
          <mxGeometry x="270" y="180" width="120" height="60" as="geometry" />
        </mxCell>
      </root>
    </mxGraphModel>
  </diagram>
</mxfile>
